<svg width="104" height="15" viewBox="0 0 104 15" fill="none" xmlns="http://www.w3.org/2000/svg">
<path d="M21.7016 0.201477H17.9746V14.8015H29.2686V14.0401H21.7016V0.201477Z" fill="black"/>
<path d="M30.4731 14.8015H31.3414L33.4235 10.5205H39.5077L41.6723 14.8015H45.7448L37.8659 0.00299072L30.4731 14.8015ZM33.7904 9.76499L36.4045 4.50921L39.1072 9.76499H33.7904Z" fill="black"/>
<path d="M96.1179 0.00299072L88.7251 14.8015H89.5934L91.6755 10.5205H97.7597L99.9243 14.8015H103.997L96.1179 0.00299072ZM97.3622 9.76499H92.0454L94.6595 4.50921L97.3622 9.76499Z" fill="black"/>
<path d="M55.5589 9.99014L51.0248 0.201477H47.0991V14.7986H47.8849V2.02056L53.8835 15H54.3329L59.5885 2.16869V14.7986H63.2727V0.201477H59.5732L55.5589 9.99014Z" fill="black"/>
<path d="M70.2035 0.201477H66.4766V14.8015H70.2035V0.201477Z" fill="black"/>
<path d="M86.0775 12.1173L85.4049 10.2479C84.9891 9.05986 84.1636 8.29253 82.8856 7.91923C83.546 7.75925 84.1422 7.51927 84.6436 7.21115C85.8115 6.49419 86.4291 5.43948 86.4291 4.16257C86.4291 2.83825 85.8268 1.81613 84.6405 1.12287C83.6102 0.518483 82.1457 0.201477 80.4122 0.201477H73.4077V14.8015H77.1347V8.24809H78.7704C80.458 8.24809 81.1154 8.76952 81.7024 10.5767L82.3995 12.6358C82.6502 13.3735 82.8642 14.0075 83.335 14.68L83.4176 14.7986H87.6612L87.2638 14.3571C86.6462 13.6727 86.4047 13.0535 86.0775 12.1173ZM82.5952 4.26626C82.5952 6.37864 81.4334 7.49557 79.2351 7.49557H77.1347V0.953995H79.3176C81.4609 0.953995 82.5952 2.10055 82.5952 4.26626Z" fill="black"/>
<path d="M11.2481 10.7367C11.2481 12.9024 10.0007 14.2475 7.992 14.2475C5.55833 14.2475 4.10607 11.7618 4.10607 7.60221C4.10607 5.56093 4.54022 3.84258 5.3596 2.63974C6.17286 1.44578 7.33772 0.814734 8.72883 0.814734C10.9485 0.814734 12.789 2.03239 13.532 3.98775L13.5717 4.09737H14.3942L14.3147 3.87814C13.4097 1.37764 11.2298 0 8.18156 0C3.51599 0 0 3.25005 0 7.56073C0 9.67608 0.822437 11.59 2.31138 12.9528C3.75753 14.2741 5.72954 15 7.86665 15C9.08043 15 10.2728 14.6356 11.2542 13.966V14.7985H14.9384V7.63776H11.2542L11.2481 10.7367Z" fill="black"/>
</svg>
