<svg width="53" height="52" viewBox="0 0 53 52" fill="none" xmlns="http://www.w3.org/2000/svg">
<path d="M26.6427 33.942C22.1854 33.942 18.5498 30.3064 18.5498 25.8492C18.5498 21.392 22.1854 17.7563 26.6427 17.7563C31.0999 17.7563 34.7355 21.392 34.7355 25.8492C34.7355 30.3064 31.0999 33.942 26.6427 33.942Z" stroke="#2D2D2D"/>
<path d="M16.2647 43.9446L16.119 43.61L15.7559 43.6468L9.42706 44.2876C8.57693 44.3522 7.72234 43.9499 7.28993 43.1996L7.2888 43.1977L1.65602 33.5243C1.65584 33.524 1.65567 33.5237 1.6555 33.5234C1.21873 32.7648 1.28181 31.8299 1.78737 31.1302L5.63985 25.9749L5.86015 25.6801L5.64415 25.3822L1.92592 20.2529C1.92562 20.2525 1.92533 20.2521 1.92504 20.2517C1.44956 19.5864 1.40271 18.6522 1.84154 17.9125L1.84359 17.909L7.4775 8.2337L7.47862 8.23177C7.91574 7.47332 8.77002 7.0599 9.6241 7.16847L9.6241 7.1685L9.62922 7.16909L16.0449 7.91746L16.4076 7.95977L16.5583 7.62712L19.1731 1.85401L19.1738 1.85224C19.5229 1.07363 20.3122 0.570801 21.1706 0.570801H32.4384C33.317 0.570801 34.109 1.09381 34.461 1.8763C34.4614 1.87719 34.4618 1.87808 34.4622 1.87896L37.0206 7.78008L37.166 8.11547L37.5297 8.07865L43.858 7.43784C44.7335 7.37315 45.5624 7.77397 45.9957 8.52577L45.9968 8.5277L51.6296 18.2011C51.6298 18.2014 51.6299 18.2017 51.6301 18.202C52.0668 18.9605 52.0038 19.8952 51.4985 20.5948L47.6465 25.7228L47.4249 26.0178L47.6414 26.3165L51.3614 31.4482C51.8649 32.1427 51.9079 33.0497 51.471 33.7862L51.469 33.7897L45.835 43.465L45.8339 43.4669C45.396 44.2268 44.5674 44.6391 43.6869 44.53L43.6833 44.5296L37.2677 43.7812L36.905 43.7389L36.7543 44.0716L34.1416 49.8401C33.7645 50.6277 32.9698 51.1279 32.115 51.1279H20.8471C19.9685 51.1279 19.1763 50.6047 18.8244 49.822C18.8241 49.8212 18.8237 49.8205 18.8234 49.8197L16.2647 43.9446Z" stroke="#2D2D2D"/>
</svg>
