<svg width="40" height="40" viewBox="0 0 40 40" fill="none" xmlns="http://www.w3.org/2000/svg">
<circle cx="20" cy="20" r="19.5" fill="white" stroke="#DBDEE6"/>
<path d="M17.1916 20.3912H18.4936V25.8065C18.4936 25.9134 18.5793 26 18.6851 26H20.8927C20.9986 26 21.0843 25.9134 21.0843 25.8065V20.4167H22.5811C22.6784 20.4167 22.7603 20.3429 22.7714 20.2453L22.9987 18.2516C23.0049 18.1968 22.9877 18.1419 22.9514 18.1007C22.9151 18.0595 22.863 18.0359 22.8084 18.0359H21.0844V16.7862C21.0844 16.4095 21.2852 16.2185 21.6812 16.2185C21.7376 16.2185 22.8084 16.2185 22.8084 16.2185C22.9143 16.2185 23 16.1318 23 16.0249V14.195C23 14.0881 22.9143 14.0014 22.8084 14.0014H21.2549C21.244 14.0009 21.2196 14 21.1838 14C20.9142 14 19.9773 14.0535 19.2372 14.7413C18.4172 15.5036 18.5312 16.4163 18.5584 16.5745V18.0359H17.1916C17.0857 18.0359 17 18.1225 17 18.2295V20.1976C17 20.3045 17.0857 20.3912 17.1916 20.3912Z" fill="#2D2D2D"/>
</svg>
