<svg width="56" height="57" viewBox="0 0 56 57" fill="none" xmlns="http://www.w3.org/2000/svg">
<rect opacity="0.3" y="0.491699" width="56" height="56" rx="2" fill="#E4CFCF"/>
<path d="M28.0002 32.7919C25.6323 32.7919 23.7002 30.8598 23.7002 28.4919C23.7002 26.124 25.6323 24.1919 28.0002 24.1919C30.3681 24.1919 32.3002 26.124 32.3002 28.4919C32.3002 30.8598 30.3681 32.7919 28.0002 32.7919Z" stroke="#2D2D2D"/>
<path d="M22.4052 38.5117L22.2595 38.1772L21.8964 38.2139L18.364 38.5716C17.966 38.6009 17.5752 38.4111 17.3807 38.0735L17.3796 38.0716L14.2336 32.6689C14.2334 32.6686 14.2333 32.6683 14.2331 32.668C14.0342 32.3222 14.0617 31.8945 14.2937 31.5723L16.4446 28.6941L16.6649 28.3993L16.4489 28.1013L14.3726 25.2372C14.3723 25.2368 14.3721 25.2364 14.3718 25.2361C14.158 24.9364 14.1349 24.5094 14.3358 24.1709L14.3379 24.1673L17.485 18.7627L17.485 18.7627L17.4861 18.7607C17.6853 18.4152 18.0755 18.2259 18.4656 18.2755L18.4656 18.2755L18.4707 18.2761L22.0545 18.6942L22.4172 18.7365L22.5679 18.4038L24.0285 15.179L24.0293 15.1772C24.1879 14.8233 24.5489 14.5918 24.9433 14.5918H31.2376C31.6402 14.5918 32.0039 14.8317 32.1655 15.1896L33.5947 18.486L33.7401 18.8214L34.1038 18.7846L37.6357 18.4269C38.0471 18.3975 38.4241 18.5859 38.6195 18.925L38.6206 18.9269L41.7666 24.3296C41.7667 24.3299 41.7668 24.3301 41.767 24.3303C41.9659 24.676 41.9386 25.1035 41.7069 25.4257L39.5564 28.2885L39.3348 28.5836L39.5513 28.8823L41.6293 31.7489C41.8592 32.0659 41.8784 32.4774 41.6794 32.8127L41.6774 32.8162L38.5302 38.2209L38.5291 38.2228C38.3292 38.5698 37.9527 38.758 37.5481 38.7079L37.5446 38.7074L33.9608 38.2894L33.598 38.2471L33.4474 38.5798L31.9889 41.7999C31.8142 42.1629 31.4477 42.3918 31.0569 42.3918H24.7626C24.3599 42.3918 23.9961 42.1517 23.8345 41.7937C23.8342 41.793 23.8339 41.7922 23.8335 41.7915L22.4052 38.5117Z" stroke="#2D2D2D"/>
</svg>
