<svg width="40" height="40" viewBox="0 0 40 40" fill="none" xmlns="http://www.w3.org/2000/svg">
<circle cx="20" cy="20" r="19.5" fill="white" stroke="#DBDEE6"/>
<path d="M14.3793 11.8156C13.8098 12.0371 13.3281 12.3324 12.8465 12.814C12.3648 13.2921 12.0695 13.7773 11.848 14.3433C11.6336 14.8917 11.4895 15.521 11.4473 16.4421C11.4051 17.3632 11.3945 17.6585 11.3945 20.007C11.3945 22.3554 11.4051 22.6507 11.4473 23.5718C11.4895 24.4929 11.6371 25.1222 11.848 25.6707C12.0695 26.2402 12.3648 26.7218 12.8465 27.2035C13.3281 27.6851 13.8098 27.9804 14.3793 28.2019C14.9277 28.4164 15.557 28.5605 16.4781 28.6027C17.3992 28.6449 17.6945 28.6554 20.043 28.6554C22.3914 28.6554 22.6867 28.6449 23.6078 28.6027C24.5289 28.5605 25.1582 28.4128 25.7066 28.2019C26.2762 27.9804 26.7578 27.6851 27.2395 27.2035C27.7211 26.7218 28.0164 26.2402 28.2379 25.6707C28.4523 25.1222 28.5965 24.4929 28.6387 23.5718C28.6809 22.6507 28.6914 22.3554 28.6914 20.007C28.6914 17.6585 28.6809 17.3632 28.6387 16.4421C28.5965 15.521 28.4488 14.8917 28.2379 14.3433C28.0164 13.7773 27.7211 13.2921 27.243 12.814C26.7613 12.3324 26.2797 12.0371 25.7102 11.8156C25.1617 11.6011 24.5324 11.457 23.6113 11.4148C22.6902 11.3726 22.3949 11.3621 20.0465 11.3621C17.698 11.3621 17.4027 11.3726 16.4816 11.4148C15.557 11.4535 14.9277 11.6011 14.3793 11.8156ZM23.5375 12.9687C24.3812 13.0074 24.8383 13.148 25.1441 13.2675C25.5484 13.4257 25.8367 13.6121 26.1391 13.9144C26.4414 14.2167 26.6277 14.505 26.7859 14.9093C26.9055 15.2152 27.0461 15.6722 27.0848 16.516C27.127 17.4265 27.134 17.7007 27.134 20.0105C27.134 22.3203 27.1234 22.5945 27.0848 23.505C27.0461 24.3488 26.9055 24.8058 26.7859 25.1117C26.6277 25.516 26.4414 25.8042 26.1391 26.1066C25.8367 26.4089 25.5484 26.5953 25.1441 26.7535C24.8383 26.873 24.3812 27.0136 23.5375 27.0523C22.627 27.0945 22.3527 27.1015 20.043 27.1015C17.7332 27.1015 17.459 27.091 16.5484 27.0523C15.7047 27.0136 15.2477 26.873 14.9418 26.7535C14.5375 26.5953 14.2492 26.4089 13.9469 26.1066C13.6445 25.8042 13.4582 25.516 13.3 25.1117C13.1805 24.8058 13.0398 24.3488 13.0012 23.505C12.959 22.5945 12.952 22.3203 12.952 20.0105C12.952 17.7007 12.9625 17.4265 13.0012 16.516C13.0398 15.6722 13.1805 15.2152 13.3 14.9093C13.4582 14.505 13.6445 14.2167 13.9469 13.9144C14.2492 13.6121 14.5375 13.4257 14.9418 13.2675C15.2477 13.148 15.7047 13.0074 16.5484 12.9687C17.459 12.9265 17.7332 12.9195 20.043 12.9195C22.3527 12.9195 22.627 12.9265 23.5375 12.9687Z" fill="#2D2D2D"/>
<path d="M15.6035 20.0105C15.6035 22.4644 17.5934 24.4507 20.0438 24.4507C22.4941 24.4507 24.484 22.4609 24.484 20.0105C24.484 17.5601 22.4977 15.5703 20.0438 15.5703C17.5898 15.5703 15.6035 17.5566 15.6035 20.0105ZM22.9266 20.0105C22.9266 21.6031 21.6363 22.8933 20.0438 22.8933C18.4512 22.8933 17.1609 21.6031 17.1609 20.0105C17.1609 18.4179 18.4512 17.1277 20.0438 17.1277C21.6363 17.1277 22.9266 18.4179 22.9266 20.0105Z" fill="#2D2D2D"/>
<path d="M24.6621 16.4316C25.2349 16.4316 25.6992 15.9672 25.6992 15.3945C25.6992 14.8217 25.2349 14.3574 24.6621 14.3574C24.0893 14.3574 23.625 14.8217 23.625 15.3945C23.625 15.9672 24.0893 16.4316 24.6621 16.4316Z" fill="#2D2D2D"/>
</svg>
