<svg width="40" height="40" viewBox="0 0 40 40" fill="none" xmlns="http://www.w3.org/2000/svg">
<circle cx="20" cy="20" r="19.5" fill="white" stroke="#DBDEE6"/>
<path d="M26.4644 16.9874C26.4735 17.1176 26.4735 17.2478 26.4735 17.3791C26.4735 21.3827 23.3778 26 17.7172 26V25.9976C16.0451 26 14.4077 25.5284 13 24.6393C13.2431 24.6681 13.4875 24.6825 13.7325 24.6831C15.1182 24.6843 16.4644 24.2265 17.5545 23.3836C16.2377 23.359 15.0829 22.5136 14.6795 21.2795C15.1408 21.3671 15.6161 21.3491 16.0689 21.2273C14.6332 20.9417 13.6002 19.6998 13.6002 18.2575C13.6002 18.2443 13.6002 18.2317 13.6002 18.2191C14.028 18.4537 14.507 18.5839 14.997 18.5983C13.6447 17.7085 13.2279 15.9374 14.0445 14.5527C15.6069 16.4456 17.9122 17.5963 20.387 17.7181C20.1389 16.6658 20.4778 15.5631 21.2773 14.8233C22.5168 13.6762 24.4662 13.735 25.6313 14.9547C26.3205 14.8209 26.9811 14.5719 27.5856 14.2191C27.3559 14.9205 26.8751 15.5163 26.2328 15.8948C26.8428 15.824 27.4388 15.6633 28 15.4179C27.5868 16.0274 27.0664 16.5584 26.4644 16.9874Z" fill="#2D2D2D"/>
</svg>
